<svg width="173" height="43" viewBox="0 0 173 43" fill="none" xmlns="http://www.w3.org/2000/svg">
<g clip-path="url(#clip0)">
<path d="M29.8073 42.0639C29.8073 42.1545 29.8364 42.1243 29.7492 42.1243C29.7492 41.9129 29.7201 42.1243 29.8073 42.0639ZM40.16 0H40.3054C40.6253 0.0301966 40.8579 0.27177 40.9161 0.573736C41.0033 0.996489 40.887 0.724719 41.0906 1.05688C41.2651 1.32865 41.236 1.7514 40.9742 1.99298C40.6544 2.29494 40.2182 1.99298 39.433 2.35534C39.2003 2.47612 39.2876 2.50632 39.1422 2.6875C39.0259 2.83848 38.9386 2.86868 38.7932 2.98947C38.5315 3.17065 38.4442 3.44242 38.1825 3.6236C38.0662 3.71419 37.9208 3.77458 37.8045 3.86517C37.281 4.22753 37.1647 4.31812 36.4086 4.31812C36.4668 4.58989 36.7576 4.98244 36.8739 5.49579C37.2229 7.24719 35.2163 8.72683 33.5006 7.06601C33.2388 6.79424 33.0062 6.46208 32.7445 6.19031C31.6976 5.16362 31.116 6.00913 31.4068 6.94523C31.5231 7.36798 31.7557 7.70014 31.9593 8.0323C32.1629 8.36447 32.3955 8.66643 32.6281 8.9986L35.7107 12.441C35.8561 12.592 35.9433 12.7128 36.0887 12.894C36.4668 13.3167 36.8448 13.7999 37.1647 14.283C37.281 14.4642 37.3683 14.585 37.4846 14.7662C38.3279 16.1854 38.8223 17.5744 38.2988 19.2655C37.4555 22.1039 34.4602 23.5534 31.6976 22.5871C31.5522 22.5267 31.2032 22.3757 31.116 22.4059L30.0109 22.9192C28.7313 23.4024 27.1901 23.5836 25.8524 23.191C25.4453 23.0702 24.9509 22.7985 24.7473 22.7381C24.5438 23.1004 24.1657 23.4024 23.8167 23.6138C22.2173 24.6706 20.9087 24.5197 19.8618 25.033C20.4434 26.1805 22.0428 26.4522 22.9734 25.6973C23.3224 25.3954 23.3515 24.8518 23.8167 24.7612C25.1544 24.5197 24.8636 26.8448 23.177 27.7507C22.0138 28.3546 20.6179 28.2942 19.4837 27.6299C18.7277 27.2072 18.3787 26.6938 18.2042 26.5428C18.0297 26.9354 17.9716 27.6299 18.117 28.1131C18.6695 29.8947 21.4612 29.2907 22.828 29.019C24.3111 28.717 25.7361 28.264 27.2192 28.0527C28.0043 27.9319 28.9931 27.8715 29.7492 27.9621C31.116 28.1433 32.4537 28.7472 33.0934 30.0456C33.5878 31.0421 33.6169 32.0084 33.297 33.0653C32.9771 34.0316 32.4246 34.5751 31.6103 34.9979C31.8139 35.2999 31.9593 35.3905 32.0756 35.8132C32.3083 36.5379 32.0465 37.2022 32.1338 37.5042C32.221 37.7156 32.2501 37.7458 32.2792 38.0176C32.3373 38.4705 31.9302 39.5274 31.6685 39.8596C31.494 40.0709 31.5522 39.9803 31.4358 40.2823C31.2904 40.6447 31.0869 40.7051 31.0578 41.1278C31.0287 41.2788 30.9705 41.5204 30.9996 41.6714C31.0578 42.0035 31.2904 42.2753 31.0578 42.6678C30.9706 42.849 30.7961 43 30.5634 43.0302H30.3889C30.3308 43.0302 30.2726 43 30.2145 42.9698C29.8946 42.8188 30.1563 42.849 29.7782 42.9094C29.6328 42.9396 29.4584 42.8792 29.342 42.7886C29.1094 42.6376 28.9349 42.2753 29.1094 41.8827C29.2839 41.4902 29.4002 41.46 29.4874 41.007C29.5165 40.7353 29.5747 40.6749 29.4874 40.4937C29.4002 40.3125 29.342 40.2219 29.342 40.0105C29.313 39.6482 29.342 39.769 29.2257 39.467C29.1094 39.165 29.1094 38.7423 29.0803 38.4705C29.0512 38.2591 29.0512 38.0478 29.0803 37.8364C29.1094 37.4438 29.313 37.2626 29.4874 36.9909C29.0803 37.0815 28.5278 36.9607 28.1788 36.8399C27.8299 36.7191 27.4809 36.4473 27.3064 36.1454C26.812 35.4206 26.8993 34.3638 27.4227 33.79C28.4696 32.6426 30.418 33.0049 30.5634 32.25C30.6797 31.6763 30.3308 31.4347 29.9818 31.2837C28.7604 30.8006 25.7942 31.6461 24.7182 31.9178C22.7117 32.4312 21.4612 32.7633 19.3965 32.7633C15.8778 32.7633 13.6095 28.8982 15.2671 25.3954C15.587 24.7008 16.1104 24.0969 16.6048 23.6138C16.7502 23.493 16.9537 23.4024 16.9828 23.191C17.0991 22.4059 16.9537 22.2851 17.2736 21.1376C17.5063 20.2921 17.7971 19.5976 18.2333 18.9635C18.4078 18.6917 18.6986 18.2992 18.9312 18.0878C19.1348 17.9066 19.571 17.4838 19.8036 17.4235C19.8036 17.2121 19.6873 16.9403 19.6582 16.6987C19.4256 15.4909 19.7164 14.1924 20.0654 13.1053C20.1526 12.8034 20.298 11.9881 20.3852 11.7767C19.92 11.7767 19.7746 11.8371 19.4256 11.9881C19.1639 12.139 18.9312 12.29 18.7567 12.5014C17.6226 13.9508 18.5823 14.8265 18.6113 15.1587C18.6695 15.5211 18.4078 15.823 18.2042 15.9136C17.6226 16.1854 16.9828 15.4003 16.7793 15.0983C16.4594 14.5548 16.314 13.981 16.4303 13.1657C16.6048 11.8673 17.2445 10.9312 18.2333 10.2367C18.5532 10.0253 19.3965 9.57233 19.8618 9.57233C19.7746 9.20997 19.1057 8.84761 18.7858 8.72683C18.2042 8.51545 17.6226 8.75702 17.3027 9.02879C16.6339 9.60253 16.1686 10.5084 15.8487 11.4445C15.1798 13.3771 14.7145 15.4607 13.9294 17.3631C13.6386 18.0878 13.3187 18.6615 12.8825 19.2655C12.4753 19.8392 11.981 20.2921 11.3994 20.6545C9.50913 21.802 7.09545 20.7451 6.39752 18.9635C6.16487 18.3596 6.13579 18.118 6.13579 17.3027C5.49602 17.6348 4.68177 17.2121 4.21648 16.8195C3.57671 16.276 3.31498 16.7591 2.64613 15.7928C2.55889 15.6419 2.44257 15.5815 2.32625 15.4305C2.15176 15.1889 2.06452 14.7963 1.86096 14.5548C1.51199 14.1622 1.83188 14.1924 1.33751 13.7697C0.668657 13.2261 0.377852 13.5583 0.0870471 13.0751C-0.116516 12.6826 -0.000194424 12.3806 0.26153 12.139C0.348772 12.0787 0.319691 12.1088 0.377852 12.0787C0.581416 11.8975 0.523255 11.5955 0.872221 11.4143C1.65739 11.052 1.77372 12.0183 2.12268 12.3202C2.32625 12.5014 2.44257 12.6524 2.73337 12.6826C3.1405 12.7128 3.25682 12.894 3.75119 12.9846C4.07108 13.0449 4.79809 13.4375 5.05981 13.6187C5.35062 13.8301 5.40878 14.0112 5.58326 14.3434C5.81591 14.1622 6.22304 12.894 7.41534 12.8638C8.46223 12.8336 9.07292 13.3771 9.33465 14.1924C9.82902 15.6419 8.11327 17.6952 9.42189 17.967C10.9341 18.2992 12.2136 12.7732 12.5917 11.3237C12.708 10.9312 12.8534 10.4782 12.9988 10.0857C13.7549 7.73034 15.1217 5.22402 17.8262 5.10323C18.0297 5.10323 18.0588 5.07303 18.1751 5.07303L19.222 5.22402C21.2867 5.76756 22.6244 7.33778 23.1479 9.45155C23.2642 9.90449 23.1479 10.0555 23.555 10.2971C24.1366 10.6594 24.6019 11.1426 25.0672 11.6257C25.4743 12.0485 25.7651 12.5618 26.0559 13.0751C26.4922 13.7999 26.7539 14.7662 26.783 15.6419C27.3064 15.7626 27.7135 15.9136 28.1788 16.1854C28.9931 16.6383 29.5747 17.3329 30.2145 17.9972C30.418 18.2086 30.9124 18.8427 31.1741 18.9333C31.2032 18.7823 31.2904 18.6917 31.3486 18.5105C31.6976 17.4537 31.145 16.2458 30.1854 15.823C29.7492 15.6419 29.5456 15.7928 29.2548 15.7022C28.4405 15.4305 28.5569 14.2528 30.04 14.1018C31.8139 13.9206 33.2679 15.823 33.5006 17.5744C33.5587 18.118 33.5006 18.6917 33.3842 19.1749C33.3552 19.3258 33.297 19.4768 33.297 19.6278C33.7623 19.6278 34.402 19.2353 34.6056 18.9635C35.7979 17.4838 33.9949 15.4607 33.0934 14.3434L32.1629 13.3167C31.6394 12.7732 30.6216 11.5955 30.1272 10.9614C30.04 10.8708 30.0109 10.8104 29.9237 10.7198C28.964 9.42135 27.5391 7.06601 28.5859 4.89185C29.2548 3.50281 30.7379 2.6573 32.2792 2.86868C33.1807 2.98947 33.297 3.32163 33.646 3.41222C33.7914 2.74789 34.2566 2.32514 34.8092 2.02317C35.5653 1.63062 35.0127 2.11376 35.5653 1.54003C35.827 1.26826 35.9433 1.17767 36.3504 1.08708C36.5249 1.05688 36.7285 1.02669 36.8739 0.996489C37.2519 0.936096 38.2407 0.936096 38.5606 0.966292C38.7641 0.996489 38.9095 0.905899 39.0549 0.845506C39.7529 0.452949 39.7529 0.0301966 40.16 0V0ZM30.418 42.1545C30.4471 42.2149 30.4762 42.1847 30.418 42.2753L30.3599 42.1545L30.1563 41.7317C29.9237 41.8525 29.9818 41.9431 29.7782 42.0639C29.9818 41.46 30.0691 41.9431 30.2145 40.3729C30.0981 40.2219 29.9818 40.1917 29.9527 39.9199C29.8946 39.316 29.7201 39.1952 29.7201 38.6819C29.7201 38.4101 29.6619 38.2893 29.691 38.0478C29.7201 37.5646 30.0981 37.4438 30.1854 37.0815C30.5053 35.6622 28.0625 37.0513 27.6263 35.4206C27.1319 33.5183 29.9237 33.8202 30.7961 33.0351C31.4068 32.5218 31.2323 31.4951 30.7379 31.0119C29.7492 30.0758 27.3064 30.559 26.0269 30.861C23.3224 31.4951 19.1348 33.0955 16.8665 31.1931C15.965 30.4382 15.0635 28.9586 15.3834 27.026C15.587 25.7275 16.5757 24.2177 17.6517 23.6138C17.5644 22.1945 17.8843 20.9867 18.4368 19.8996C18.9021 18.9937 19.7164 17.967 20.7051 17.6952C20.647 17.4838 20.4725 17.3027 20.3852 17.0007C20.0944 16.1854 20.1817 15.2191 20.3562 14.434C20.5888 13.3469 21.0541 12.4108 21.0541 11.2331C20.8505 10.9312 19.6292 11.1426 19.3383 11.2633C18.8149 11.4747 18.4368 11.8069 18.1751 12.139C17.8843 12.5316 17.6517 12.9544 17.5644 13.5583C17.4481 14.4038 17.6517 14.585 17.8843 15.2493C17.6808 15.1587 17.419 14.8265 17.3027 14.6152C16.4594 12.9544 17.9425 10.1461 20.9087 10.1461C20.9087 9.33076 19.7164 8.18329 18.7567 8.00211C17.3318 7.70014 16.5175 8.78722 16.0232 9.51194C14.2202 12.1692 13.8421 20.5337 9.59637 20.4733C8.31683 20.4431 7.41534 19.5976 7.03729 18.7219C6.77556 18.118 6.77556 17.5442 6.92097 16.8497C7.09545 16.0344 7.50258 15.4909 7.26993 15.2795C7.06637 15.3097 7.00821 15.4909 6.92097 15.6721C6.68832 16.1854 6.33936 16.6383 5.69959 16.7289C5.20522 16.7893 4.88533 16.5478 4.62361 16.3364C4.4782 16.2156 4.39096 16.0646 4.1874 16.0042C3.75119 15.8532 3.46039 15.974 3.19866 15.4909C3.05326 15.2493 2.9951 15.2493 2.8497 15.0681C2.73337 14.9171 2.70429 14.736 2.61705 14.5246C2.50073 14.3132 2.41349 14.2528 2.32625 14.1018C2.12268 13.7697 2.41349 13.7999 2.0936 13.5583C1.51199 13.1053 1.42475 12.894 0.668657 12.743L1.25027 12.7128L1.16303 12.1088C1.30843 12.5316 1.48291 12.7128 1.83188 12.9846C2.70429 13.7395 2.29717 13.2563 2.82061 13.4073C3.02418 13.4677 3.11142 13.5885 3.40223 13.6489C3.66395 13.7093 3.80935 13.6791 4.01292 13.8301L4.50728 14.1018C5.08889 14.4038 4.97257 15.3399 5.64142 15.3097C6.04855 15.3097 6.16487 14.7963 6.36844 14.4642C6.77556 13.7999 7.44442 13.2563 8.34591 13.8905C9.10201 14.434 8.63672 15.6117 8.43315 16.3666C8.11327 17.4537 8.17143 18.1784 9.01476 18.6011C10.556 19.356 11.6611 16.7893 12.0973 15.6419C13.1442 12.6826 13.784 8.24368 15.7905 6.67346C17.1282 5.64677 18.9894 5.49579 20.5016 6.49228C21.1413 6.91503 21.6066 7.42837 21.9847 8.12289C22.6826 9.39115 22.5081 10.448 22.7989 10.6292C23.2642 10.9614 23.4678 10.9614 24.0494 11.5049C25.3289 12.6826 26.3177 14.283 26.085 16.3364C27.4809 16.2458 28.4115 17.0913 29.0803 17.7254C29.313 17.9368 29.4293 18.118 29.6038 18.3294C30.3599 19.1447 30.418 19.2051 31.2904 19.8694C31.5812 19.658 31.9302 19.0239 32.0465 18.5105C32.3373 17.3631 31.843 16.1854 30.9996 15.4909C30.4471 15.0379 30.0981 15.0681 29.4584 14.9775C30.9124 14.0716 33.0062 16.0344 32.8026 18.3897C32.7445 19.2353 32.5118 19.5976 32.221 20.2317C33.0062 20.6847 34.6929 20.0204 35.2745 19.1145C35.9433 18.0576 35.5071 16.6685 34.9546 15.7324C34.6056 15.1587 34.1985 14.585 33.7914 14.132L31.494 11.5351C30.6507 10.6594 29.7782 9.48174 29.2548 8.27388C27.9753 5.28441 30.0981 2.98947 32.3664 3.53301C33.7041 3.86517 34.3148 5.28441 34.5765 5.4052C35.1291 5.64677 34.4311 4.58989 34.373 4.40871C34.0822 3.5934 34.373 2.86868 35.1581 2.53652C35.827 2.26475 35.5071 2.53652 36.0015 1.96278C36.2632 1.66081 36.6122 1.66081 37.0484 1.57022C37.3392 1.50983 37.4555 1.57022 37.7172 1.60042C37.9499 1.63062 38.1244 1.50983 38.3279 1.54003C38.6187 1.57022 38.5024 1.72121 38.8514 1.60042C39.1131 1.47963 39.6365 1.32865 39.8401 1.14747C39.9855 1.02669 40.0146 0.905899 40.16 0.785112C40.1018 0.966292 39.9855 1.08708 39.9273 1.23806C40.0437 1.32865 40.2763 1.35885 40.4508 1.38904C39.9855 1.47963 40.0146 1.29846 39.4621 1.54003C39.2003 1.66081 38.9095 1.72121 38.706 1.87219C38.6187 2.14396 38.6478 2.20435 38.4152 2.35534C38.0953 2.56671 37.9499 2.92907 37.63 3.11025C37.5427 3.17065 37.4555 3.17065 37.3973 3.23104C37.281 3.29143 37.281 3.32163 37.1938 3.41222C36.7285 3.80478 36.4086 3.44242 35.9433 3.5934C35.5362 3.71419 35.4199 4.13694 35.6525 4.52949C36.0596 5.19382 36.4668 6.03933 35.827 6.73385C35.1291 7.48876 34.2566 6.97542 33.7914 6.46208C33.4424 6.03933 32.8317 5.25421 32.1629 5.04284C31.3195 4.80126 30.5634 5.58638 30.5634 6.40169C30.5634 7.76053 31.872 9.42135 32.7154 10.2971C32.8317 10.4178 32.948 10.5688 33.0643 10.7198C33.1807 10.8708 33.3261 10.9614 33.4424 11.1124C33.9368 11.6559 34.8383 12.5618 35.2454 13.1053L35.9142 13.9206C36.6994 14.8869 37.5427 16.125 37.6881 17.4537C37.9208 19.4768 36.7576 20.8961 35.7107 21.5604C34.6638 22.2247 33.297 22.3757 32.0465 22.0435C31.6685 21.953 31.2614 21.7114 30.9415 21.651C30.7088 21.7718 30.5634 21.9228 30.2726 22.0737C30.04 22.1945 29.7492 22.3153 29.5165 22.4059C28.1207 22.889 26.434 22.9796 25.0963 22.2549C24.8636 22.1341 24.6601 21.953 24.4565 21.8322C23.904 23.3722 21.8684 23.7647 20.4434 24.1573C19.6873 24.3687 19.3093 24.6103 18.9021 24.731C18.9603 25.033 19.0766 25.3048 19.222 25.5463C19.6582 26.2711 20.1817 26.724 21.1123 26.875C22.3046 27.0864 23.3515 26.6032 23.904 25.5463C24.0203 27.0562 22.101 27.6601 20.9378 27.5091C19.6001 27.328 18.7858 26.4824 18.117 25.3954C17.5063 25.9993 17.0119 27.328 17.419 28.5056C18.5532 31.6159 24.3111 29.3511 26.6376 28.9284C29.1385 28.4754 31.5812 28.6264 32.4827 30.6798C32.948 31.7669 32.6281 33.2465 31.9884 33.8806C30.6797 35.1489 29.4002 34.6657 29.1966 35.0885C29.313 35.3905 29.7492 35.2093 30.0981 35.2395C31.116 35.3301 31.5522 36.1152 31.2904 37.2626C31.2032 37.6552 31.4649 37.8062 31.4649 38.1987C31.4649 38.4705 31.2904 38.8027 31.2032 39.1046C31.0869 39.467 30.9124 39.5274 30.767 39.7992C30.5343 40.3125 30.767 40.1313 30.3017 40.4635C30.2726 40.7956 30.2145 41.0674 30.1854 41.3996C30.2435 41.7619 30.3599 41.7619 30.418 42.1545V42.1545ZM167.94 19.7486H161.775V13.1355H168.201C169.714 13.1355 170.877 14.3434 170.877 15.823C170.877 17.1517 171.022 18.0878 170.034 19.0541C169.51 19.507 168.899 19.7486 167.94 19.7486ZM159.623 11.0822V30.5892C159.623 30.71 159.652 30.7402 159.768 30.7402H161.775V21.9831H165.584C165.73 21.9831 166.137 22.7683 166.253 23.0098L168.696 27.4185C168.928 27.7809 169.103 28.1433 169.307 28.5358L170.557 30.7402H173C172.215 29.2001 171.08 27.3581 170.295 25.8483C170.063 25.3652 168.201 22.1643 168.172 21.9831C168.463 21.9831 168.928 21.9228 169.219 21.8624C169.568 21.802 169.859 21.6812 170.121 21.5604C171.807 20.8357 173 18.9937 173 17.0913V15.8532C173 13.1657 170.877 10.9614 168.289 10.9614H159.768C159.681 10.9312 159.623 10.9614 159.623 11.0822V11.0822ZM61.5051 19.7486H55.34V13.1355H61.825C63.2208 13.1355 64.4131 14.3434 64.4131 15.6117C64.4131 16.8799 64.5876 18.2086 63.5407 19.0541C63.2499 19.2956 63.0754 19.4164 62.6974 19.5674C62.3484 19.6882 61.9413 19.7486 61.5051 19.7486V19.7486ZM53.2171 30.71H55.34V21.9529H59.1496C59.295 21.9529 59.3531 22.1643 59.4985 22.4361C59.6149 22.6475 59.7021 22.7683 59.8184 22.9796C60.2837 23.8553 60.8944 24.8518 61.3306 25.7275L64.0932 30.71H66.536C66.4779 30.4382 65.5473 28.8982 65.3437 28.5358L63.8315 25.8181C63.1918 24.6405 62.2612 23.1004 61.6796 21.9529C62.3484 21.9529 63.1336 21.802 63.628 21.5604C63.9188 21.4396 64.1514 21.3188 64.3841 21.1376C65.0238 20.6847 65.6927 19.96 66.0416 19.2655C66.6814 17.9972 66.536 16.9101 66.536 15.4909C66.536 14.585 66.1289 13.5885 65.6345 12.9242C64.7621 11.6861 63.4244 10.9312 61.8831 10.9312H53.2171V30.71ZM106.434 13.1355H116.206L112.541 19.7184C111.32 21.8624 110.099 24.2177 108.877 26.3013C108.674 26.6636 108.47 26.9958 108.267 27.3883C108.063 27.7809 107.859 28.1131 107.656 28.5056L106.434 30.7402H118.648C118.794 30.4684 119.812 28.7472 119.841 28.5358H110.099L110.709 27.4487C110.913 27.0562 111.116 26.724 111.32 26.3315C112.309 24.6103 113.356 22.5871 114.344 20.8659L118.009 14.283C118.183 13.981 119.753 11.2029 119.812 10.9614H106.434V13.1355ZM78.7498 30.71H81.0472C81.1054 30.4684 81.2798 30.106 81.3671 29.8343L82.3849 27.2374C82.8211 26.0899 83.2864 24.9424 83.7517 23.7647L86.4271 16.8195C86.6016 17.0309 90.9927 28.4754 91.5162 29.8041C91.6325 30.0758 91.7779 30.4382 91.8361 30.71H94.1334L86.6597 11.5351C86.6306 11.4445 86.6016 11.3539 86.5434 11.2331C86.5143 11.1426 86.5143 11.1426 86.4852 11.0822C86.4562 10.9916 86.4562 10.9916 86.398 10.9312L80.6401 25.7577C80.3202 26.573 80.0003 27.3883 79.6804 28.2037C79.535 28.5962 79.3605 29.0492 79.186 29.4417L78.7498 30.71ZM133.043 13.1355H145.228C145.286 12.8034 146.362 11.2331 146.391 10.9312H133.072L133.043 13.1355ZM133.043 30.71H145.228C145.257 30.5288 146.246 28.8378 146.42 28.5056H133.043V30.71ZM133.043 21.802C133.043 21.9228 133.072 21.9529 133.189 21.9529H145.082C145.228 21.9529 145.315 21.6812 145.461 21.4698L146.1 20.3223C146.217 20.111 146.304 19.9298 146.42 19.7486H133.043V21.802Z" fill="#00FF00"/>
<path d="M20.0656 21.7718C20.1528 21.4094 20.5309 21.0169 20.7053 20.7753C20.8507 20.5941 20.8217 20.6545 20.9671 20.5035C21.2579 20.2318 21.5777 19.9902 21.9849 19.8996C22.1884 19.8694 22.2466 19.9298 22.3629 20.0204C22.3629 20.6545 21.9267 20.8961 21.4323 21.1377C21.1997 21.2886 20.3273 21.7416 20.0656 21.7718ZM18.9023 22.9797C19.513 22.7985 21.1706 22.1341 21.7232 21.802C22.1884 21.5302 22.5374 21.2886 22.8282 20.9263C23.8751 19.5976 22.1012 18.2388 20.24 20.2922C19.6875 20.8961 19.0477 21.8322 18.9023 22.9797ZM23.3517 16.5176H23.2063C22.6537 16.5176 22.8282 14.6454 22.8573 14.3132C22.8864 14.0717 22.9445 13.7999 22.9445 13.5281L22.9736 13.5885C23.0027 13.6489 23.0027 13.6187 23.0318 13.6791C23.7006 14.6756 23.846 16.5176 23.3517 16.5176V16.5176ZM22.5374 11.9579C22.392 13.2563 21.6941 15.6419 22.4792 16.8195C22.741 17.2121 23.2353 17.4235 23.7297 17.1215C24.7766 16.427 24.2241 14.132 23.4389 12.9242C23.2353 12.6524 22.741 11.9881 22.5374 11.9579ZM25.7072 19.2655C25.7072 18.42 27.2194 19.3863 27.3648 19.507L28.4117 20.3224C27.7428 20.3224 27.2775 20.262 26.7832 20.0808C26.5505 20.0204 25.7072 19.6278 25.7072 19.2655ZM29.9529 20.7753L28.9351 19.8694C25.4455 16.729 24.3986 18.9031 25.4455 20.0204C26.6378 21.2886 28.4407 21.1377 29.9529 20.7753Z" fill="#00FF00"/>
<path d="M18.9023 22.9796C19.0477 21.8322 19.6875 20.8961 20.24 20.2921C22.1012 18.2388 23.8751 19.6278 22.8282 20.9263C22.5374 21.2886 22.1884 21.5604 21.7231 21.802C21.1706 22.1341 19.513 22.7984 18.9023 22.9796ZM29.9529 20.7753C28.4698 21.1376 26.6668 21.3188 25.4455 20.0204C24.3695 18.9031 25.4455 16.6987 28.9351 19.8694L29.9529 20.7753ZM22.5374 11.9579C22.741 11.9881 23.2353 12.6524 23.4389 12.9242C24.2241 14.1018 24.7766 16.3968 23.7297 17.1215C23.2353 17.4536 22.741 17.2423 22.4792 16.8195C21.6941 15.6418 22.392 13.2563 22.5374 11.9579ZM29.8075 42.0639C30.0111 41.9733 29.9529 41.8525 30.1856 41.7317L30.3891 42.1545H30.4473C30.3891 41.7619 30.2728 41.7619 30.331 41.309C30.3891 40.9768 30.4182 40.705 30.4473 40.3729C30.9126 40.0407 30.6799 40.1917 30.9126 39.7086C31.058 39.4066 31.2325 39.3764 31.3488 39.014C31.436 38.7423 31.6105 38.3799 31.6105 38.1081C31.5814 37.7458 31.3197 37.5646 31.436 37.172C31.6978 36.0246 31.2616 35.2697 30.2437 35.1489C29.8948 35.1187 29.4295 35.2697 29.3422 34.9979C29.5458 34.5751 30.7963 35.0583 32.134 33.79C32.8028 33.1559 33.0936 31.6763 32.6283 30.5892C31.7268 28.5358 29.2841 28.3848 26.7832 28.8378C24.4567 29.2605 18.6988 31.5555 17.5646 28.415C17.1284 27.2373 17.6228 25.9087 18.2626 25.3048C18.9314 26.3918 19.7457 27.2373 21.0834 27.4185C22.2175 27.5695 24.1368 26.9656 24.0496 25.4557C23.4971 26.5126 22.4502 26.9958 21.2579 26.7844C20.3564 26.6334 19.8329 26.1805 19.3676 25.4557C19.2222 25.2142 19.1059 24.9424 19.0477 24.6404C19.4549 24.5197 19.8329 24.2479 20.589 24.0667C22.014 23.7043 24.0496 23.2816 24.6021 21.7416C24.8348 21.8322 25.0092 22.0133 25.2419 22.1643C26.5796 22.8588 28.2663 22.7984 29.6621 22.3153C29.9239 22.2247 30.1856 22.1039 30.4182 21.9831C30.709 21.8322 30.8544 21.7114 31.0871 21.5604C31.3779 21.6208 31.785 21.8623 32.1921 21.9529C33.4426 22.2851 34.8094 22.1341 35.8563 21.4698C36.9032 20.8055 38.0664 19.3862 37.8338 17.3631C37.6884 16.0344 36.845 14.8265 36.0598 13.83L35.391 13.0147C34.9548 12.4712 34.0824 11.5653 33.588 11.0218C33.4717 10.8708 33.3263 10.7802 33.2099 10.6292C33.0936 10.4782 32.9773 10.3272 32.861 10.2065C32.0176 9.33075 30.6799 7.70014 30.709 6.31109C30.709 5.49578 31.4651 4.71067 32.3085 4.95224C32.9773 5.13342 33.5589 5.94873 33.937 6.37148C34.4022 6.88483 35.2747 7.39817 35.9726 6.64325C36.6124 5.94873 36.2052 5.10323 35.7981 4.4389C35.5364 4.04634 35.6818 3.62359 36.0889 3.5028C36.5542 3.35182 36.8741 3.71418 37.3394 3.32163C37.4266 3.26123 37.4266 3.23104 37.5429 3.14045C37.6302 3.08005 37.6883 3.08005 37.7756 3.01966C38.0955 2.83848 38.2409 2.47612 38.5608 2.26474C38.7934 2.11376 38.7643 2.08356 38.8516 1.7816C39.0551 1.63061 39.3459 1.57022 39.6077 1.44943C40.1311 1.23806 40.102 1.38904 40.5964 1.29845C40.4219 1.26825 40.1893 1.23806 40.073 1.14747C40.1311 0.966289 40.2474 0.875699 40.3056 0.694519C40.1311 0.815306 40.102 0.905895 39.9857 1.05688C39.7821 1.23806 39.2587 1.38904 38.997 1.50983C38.6771 1.66081 38.7643 1.47963 38.4735 1.44943C38.27 1.41924 38.1246 1.54002 37.8628 1.50983C37.6011 1.47963 37.4848 1.41924 37.194 1.47963C36.7578 1.57022 36.4088 1.57022 36.1471 1.87219C35.6527 2.41573 36.0017 2.14396 35.3037 2.44592C34.5186 2.77809 34.2278 3.5028 34.5186 4.31811C34.5767 4.49929 35.2747 5.52598 34.7221 5.3146C34.4604 5.19382 33.8497 3.77457 32.512 3.44241C30.2437 2.89887 28.1499 5.19382 29.4004 8.18328C29.9239 9.39115 30.7963 10.5688 31.6396 11.4445L33.937 14.0414C34.3441 14.4944 34.7803 15.0681 35.1002 15.6418C35.6527 16.5779 36.0889 17.967 35.4201 19.0239C34.8385 19.9298 33.1518 20.5941 32.3666 20.1411C32.6283 19.507 32.861 19.1447 32.9482 18.2991C33.1518 15.9438 31.058 13.981 29.604 14.8869C30.2437 14.9775 30.5927 14.9473 31.1452 15.4003C31.9886 16.0948 32.4539 17.2725 32.1921 18.4199C32.0758 18.9333 31.7268 19.5674 31.436 19.7788C30.5636 19.0843 30.5055 19.0541 29.7494 18.2388C29.5458 18.0274 29.4295 17.8462 29.2259 17.6348C28.5571 17.0007 27.6265 16.1552 26.2306 16.2458C26.4633 14.2226 25.4745 12.6222 24.195 11.4143C23.6134 10.8708 23.4389 10.8708 22.9445 10.5386C22.6537 10.3574 22.8282 9.27036 22.1303 8.0323C21.7522 7.33778 21.2579 6.82443 20.6472 6.40168C19.135 5.375 17.2738 5.52598 15.9361 6.58286C13.9005 8.15308 13.2898 12.592 12.2429 15.5513C11.6613 16.7591 10.5562 19.3258 9.01496 18.5407C8.17162 18.118 8.11346 17.3933 8.43335 16.3062C8.66599 15.5513 9.1022 14.3736 8.34611 13.83C7.44461 13.1657 6.77576 13.7395 6.36863 14.4038C6.16507 14.7359 6.04875 15.2493 5.64162 15.2493C4.97277 15.2795 5.08909 14.3434 4.50748 14.0414L4.01311 13.7697C3.80955 13.6489 3.66414 13.6489 3.40242 13.5885C3.11161 13.5281 3.02437 13.4073 2.82081 13.3469C2.29736 13.2261 2.70449 13.6791 1.83207 12.9242C1.51219 12.6524 1.3377 12.441 1.16322 12.0484L1.30862 12.6222L0.727013 12.6524C1.48311 12.8034 1.57035 12.9845 2.15196 13.4677C2.44276 13.7093 2.18104 13.6791 2.3846 14.0112C2.47184 14.1622 2.58817 14.2226 2.67541 14.434C2.76265 14.6454 2.79173 14.8265 2.90805 14.9775C3.02437 15.1587 3.11161 15.1587 3.25702 15.4003C3.51874 15.8532 3.80955 15.7626 4.24576 15.9136C4.44932 15.974 4.53656 16.1552 4.68196 16.2458C4.94369 16.4572 5.29265 16.6987 5.75794 16.6383C6.39771 16.5779 6.7176 16.125 6.97932 15.5815C7.06657 15.4003 7.12473 15.2191 7.32829 15.1889C7.56093 15.4003 7.15381 15.974 6.97932 16.7591C6.83392 17.4234 6.83392 18.0274 7.09565 18.6313C7.47369 19.507 8.40427 20.3525 9.65473 20.3827C13.8714 20.5035 14.2495 12.139 16.0524 9.48174C16.5468 8.75702 17.3901 7.66994 18.786 7.97191C19.7166 8.18328 20.9089 9.30056 20.938 10.1159C17.9718 10.1159 16.4887 12.9242 17.332 14.585C17.4483 14.7963 17.71 15.1285 17.9136 15.2191C17.681 14.5548 17.4483 14.3736 17.5937 13.5281C17.681 12.894 17.9136 12.5014 18.2044 12.1088C18.4661 11.7767 18.8442 11.4445 19.3676 11.2331C19.6584 11.1124 20.8798 10.901 21.0834 11.2029C21.0834 12.3806 20.6181 13.3167 20.3854 14.4038C20.211 15.2191 20.1237 16.1854 20.4145 16.9705C20.5018 17.2423 20.6762 17.4536 20.7344 17.665C19.7457 17.9368 18.9314 18.9635 18.4661 19.8694C17.9136 20.9565 17.5937 22.1643 17.681 23.5836C16.605 24.1875 15.6453 25.6973 15.4127 26.9958C15.0928 28.9284 15.9652 30.408 16.8958 31.1629C19.1641 33.0653 23.3517 31.4649 26.0561 30.8307C27.3357 30.5288 29.7784 30.0456 30.7672 30.9817C31.2906 31.4649 31.436 32.4614 30.8253 33.0049C29.9239 33.7598 27.1612 33.488 27.6556 35.3904C28.0918 37.0513 30.5345 35.6622 30.2147 37.0513C30.1274 37.4136 29.7494 37.5344 29.7203 38.0175C29.6912 38.2591 29.7494 38.4101 29.7494 38.6517C29.7494 39.165 29.9239 39.2858 29.982 39.8897C30.0111 40.1615 30.0983 40.1917 30.2437 40.3427C30.0983 41.9431 30.0111 41.46 29.8075 42.0639V42.0639Z" fill="black"/>
</g>
<defs>
<clipPath id="clip0">
<rect width="173" height="43" fill="white"/>
</clipPath>
</defs>
</svg>
